<?xml version="1.0" encoding="utf-8"?>
<!-- Generator: Adobe Illustrator 20.0.0, SVG Export Plug-In . SVG Version: 6.00 Build 0)  -->
<svg version="1.1" id="Layer_1" xmlns="http://www.w3.org/2000/svg" xmlns:xlink="http://www.w3.org/1999/xlink" x="0px" y="0px"
	 viewBox="0 0 596.9 496" style="enable-background:new 0 0 596.9 496;" xml:space="preserve">
<style type="text/css">
	.st0{fill:#D9D9FF;}
	.st1{fill:#00E8AA;}
	.st2{fill:#000026;}
	.st3{fill:#373755;}
</style>
<path class="st0" d="M231.7,58.4l106.4,0.2v142.1h-90.8l1.2-28.6c0.3-6-3.8-11.4-9.7-12.5c-0.3-0.1-0.6-0.1-1-0.1
	c-6-0.7-10.6-5.5-10.9-11.5c-1-26.2,2.9-42,2.9-42c-8.3,2.2-11.7-2.5-7.5-5c4.2-2.5,10.8-4.8,10.8-15.3S231.7,58.4,231.7,58.4z"/>
<path class="st1" d="M217.1,15.8c9.1-13.5,59.7-15.4,59.7,9.5c29.7-29.7,73.9,14.3,79.6,28.1c10.7,26.1-0.8,52.4-12.1,75.2
	c-4.9,9.9-17,14.4-26.8,9.3c-10.6-5.5-14.1-19.1-13.4-51c0.4-17.3-3.7-27.9-15.5-27.9c-4.2,0-56.8,0-56.8,0S196.8,45.9,217.1,15.8z"
	/>
<circle class="st2" cx="248.2" cy="95" r="2.2"/>
<rect x="238.9" y="200.8" transform="matrix(-1 -4.489266e-11 4.489266e-11 -1 584.3896 409.4472)" class="st2" width="106.6" height="7.9"/>
<path class="st2" d="M596.8,495.7H0V350.8c0-127.4,103.2-142.2,230.6-142.2h135.6c127.4,0,230.6,14.9,230.6,142.2V495.7z"/>
<path class="st3" d="M407.6,208h-61.7v288h251c0,0,0-48.9,0-145.2C596.9,266.6,550,208,407.6,208z"/>
<path class="st0" d="M311,105.8h-9.4V87h9.4c5.2,0,9.4,4.2,9.4,9.4v0C320.4,101.6,316.2,105.8,311,105.8z"/>
<path class="st1" d="M307.9,105.8"/>
<path class="st1" d="M346.2,122.7c-21.1,0-34.5,23.6-19.7,38.4c16.8,16.8,15.5,47.4-11.3,47.4c-13.3,0-23.4,6.5-23.4,29.5
	c0,45,54.4,43,54.4,0c0-27,39.8-29.5,69.8-29.5c0-53.7-13.7-65-38.8-65c0-13.9-4.7-21.7-18.3-21.7c0-10.5,1.7-45.9,1.7-45.9
	L346.2,122.7z"/>
</svg>
