<?xml version="1.0" encoding="utf-8"?>
<!-- Generator: Adobe Illustrator 20.1.0, SVG Export Plug-In . SVG Version: 6.00 Build 0)  -->
<svg version="1.1" id="Layer_1" xmlns="http://www.w3.org/2000/svg" xmlns:xlink="http://www.w3.org/1999/xlink" x="0px" y="0px"
	 viewBox="0 0 400 400" style="enable-background:new 0 0 400 400;" xml:space="preserve">
<style type="text/css">
	.st0{fill:#FFFFFF;}
	.st1{fill:none;stroke:#000000;stroke-width:20;stroke-linecap:round;stroke-miterlimit:10;}
	.st2{fill-rule:evenodd;clip-rule:evenodd;}
</style>
<path id="Instagram" class="st2" d="M257.7,188.5h-13.1c0.9,3.7,1.5,7.6,1.5,11.5c0,25.5-20.7,46.2-46.2,46.2
	c-25.5,0-46.2-20.7-46.2-46.2c0-4,0.6-7.8,1.5-11.5h-13.1v63.5c0,3.2,2.6,5.8,5.8,5.8h103.8c3.2,0,5.8-2.6,5.8-5.8V188.5z
	 M257.7,148.1c0-3.2-2.6-5.8-5.8-5.8h-17.3c-3.2,0-5.8,2.6-5.8,5.8v17.3c0,3.2,2.6,5.8,5.8,5.8h17.3c3.2,0,5.8-2.6,5.8-5.8V148.1z
	 M200,171.2c-15.9,0-28.8,12.9-28.8,28.8c0,15.9,12.9,28.8,28.8,28.8c15.9,0,28.8-12.9,28.8-28.8C228.8,184.1,215.9,171.2,200,171.2
	 M257.7,275H142.3c-9.6,0-17.3-7.8-17.3-17.3V142.3c0-9.6,7.7-17.3,17.3-17.3h115.4c9.6,0,17.3,7.7,17.3,17.3v115.4
	C275,267.2,267.3,275,257.7,275"/>
</svg>
