<?xml version="1.0" encoding="utf-8"?>
<!-- Generator: Adobe Illustrator 20.1.0, SVG Export Plug-In . SVG Version: 6.00 Build 0)  -->
<svg version="1.1" id="Layer_1" xmlns="http://www.w3.org/2000/svg" xmlns:xlink="http://www.w3.org/1999/xlink" x="0px" y="0px"
	 viewBox="0 0 400 400" style="enable-background:new 0 0 400 400;" xml:space="preserve">
<style type="text/css">
	.st0{fill:#FFFFFF;}
</style>
<path id="Instagram" class="st0" d="M353.9,169.3h-34.9c2.4,9.9,4,20.3,4,30.7c0,68-55.2,123.2-123.2,123.2S76.5,268,76.5,200
	c0-10.7,1.6-20.8,4-30.7H45.6v169.3c0,8.5,6.9,15.5,15.5,15.5h276.8c8.5,0,15.5-6.9,15.5-15.5V169.3H353.9z M353.9,61.6
	c0-8.5-6.9-15.5-15.5-15.5h-46.1c-8.5,0-15.5,6.9-15.5,15.5v46.1c0,8.5,6.9,15.5,15.5,15.5h46.1c8.5,0,15.5-6.9,15.5-15.5V61.6z
	 M200,123.2c-42.4,0-76.8,34.4-76.8,76.8c0,42.4,34.4,76.8,76.8,76.8c42.4,0,76.8-34.4,76.8-76.8C276.8,157.6,242.4,123.2,200,123.2
	 M353.9,400H46.1C20.5,400,0,379.2,0,353.9V46.1C0,20.5,20.5,0,46.1,0h307.7C379.5,0,400,20.5,400,46.1v307.7
	C400,379.2,379.5,400,353.9,400"/>
</svg>
