<?xml version="1.0" encoding="utf-8"?>
<!-- Generator: Adobe Illustrator 20.1.0, SVG Export Plug-In . SVG Version: 6.00 Build 0)  -->
<svg version="1.1" id="Layer_1" xmlns="http://www.w3.org/2000/svg" xmlns:xlink="http://www.w3.org/1999/xlink" x="0px" y="0px"
	 viewBox="0 0 400 400" style="enable-background:new 0 0 400 400;" xml:space="preserve">
<style type="text/css">
	.st0{fill:#FFFFFF;}
	.st1{fill:none;stroke:#000000;stroke-width:20;stroke-linecap:round;stroke-miterlimit:10;}
	.st2{fill-rule:evenodd;clip-rule:evenodd;}
</style>
<path id="LinkedIn_3_" d="M274.5,216.1v55.1h-31.9v-51.4c0-12.9-4.6-21.7-16.2-21.7c-8.8,0-14.1,5.9-16.4,11.7
	c-0.8,2.1-1.1,4.9-1.1,7.8v53.7h-32c0,0,0.4-87.1,0-96.1h32v13.6c-0.1,0.1-0.1,0.2-0.2,0.3h0.2v-0.3c4.2-6.5,11.8-15.9,28.8-15.9
	C258.8,172.9,274.5,186.6,274.5,216.1z M143.6,128.8c-10.9,0-18.1,7.2-18.1,16.6c0,9.2,6.9,16.6,17.7,16.6h0.2
	c11.1,0,18.1-7.4,18.1-16.6C161.2,136,154.5,128.8,143.6,128.8z M127.4,271.2h31.9v-96.1h-31.9V271.2z"/>
</svg>
