<?xml version="1.0" encoding="utf-8"?>
<!-- Generator: Adobe Illustrator 20.1.0, SVG Export Plug-In . SVG Version: 6.00 Build 0)  -->
<svg version="1.1" id="Layer_1" xmlns="http://www.w3.org/2000/svg" xmlns:xlink="http://www.w3.org/1999/xlink" x="0px" y="0px"
	 viewBox="0 0 282.6 180" style="enable-background:new 0 0 282.6 180;" xml:space="preserve">
<style type="text/css">
	.st0{fill:#000026;}
	.st1{fill:#373755;}
	.st2{fill:none;stroke:#0000FF;stroke-width:6;stroke-linecap:round;stroke-miterlimit:10;}
	.st3{fill:#0000FF;}
	.st4{fill:none;stroke:#FFFFFF;stroke-miterlimit:10;stroke-dasharray:5.0146,5.0146;}
	.st5{fill:none;stroke:#00E8AA;stroke-width:6;stroke-linecap:round;stroke-miterlimit:10;}
	.st6{fill:none;stroke:#FFFFFF;stroke-width:6;stroke-linecap:round;stroke-miterlimit:10;}
	.st7{fill:none;stroke:#00E8AA;stroke-width:6;stroke-linecap:round;stroke-linejoin:round;stroke-miterlimit:10;}
	.st8{fill:#00E8AA;}
	.st9{fill:#FFFFFF;}
	.st10{fill:none;stroke:#FFFFFF;stroke-miterlimit:10;}
	.st11{fill:none;stroke:#FFFFFF;stroke-miterlimit:10;stroke-dasharray:5.0499,5.0499;}
	.st12{fill:none;stroke:#FFFFFF;stroke-miterlimit:10;stroke-dasharray:5.0186,5.0186;}
</style>
<ellipse transform="matrix(0.9827 -0.1853 0.1853 0.9827 -18.7909 30.0998)" class="st0" cx="151.6" cy="115.6" rx="25.6" ry="25.6"/>
<rect x="139.7" y="99" transform="matrix(0.1853 0.9827 -0.9827 0.1853 245.7171 -70.4265)" class="st0" width="51.3" height="27.9"/>
<path class="st1" d="M197.1,126.5L197.1,126.5c0.7,3.5-1.6,6.8-5.1,7.5l-8.2,1.5l-2.4-12.6l8.2-1.5
	C193.1,120.8,196.5,123.1,197.1,126.5z"/>
<path class="st1" d="M194.7,114L194.7,114c0.7,3.5-1.6,6.8-5.1,7.5l-8.2,1.5l-2.4-12.6l8.2-1.5C190.7,108.2,194.1,110.5,194.7,114z"
	/>
<path class="st1" d="M192.4,101.4L192.4,101.4c0.7,3.5-1.6,6.8-5.1,7.5l-8.2,1.5l-2.4-12.6l8.2-1.5
	C188.4,95.6,191.7,97.9,192.4,101.4z"/>
<path class="st1" d="M190,88.8L190,88.8c0.7,3.5-1.6,6.8-5.1,7.5l-8.2,1.5l-2.4-12.6l8.2-1.5C186,83,189.3,85.3,190,88.8z"/>
<path class="st1" d="M170.8,131.7L170.8,131.7c0.7,3.5,4,5.8,7.5,5.1l5.6-1.2l-2.4-12.6l-5.6,1.2
	C172.4,124.8,170.1,128.2,170.8,131.7z"/>
<path class="st1" d="M166,119.6L166,119.6c0.7,3.5,4,5.8,7.5,5.1l8.2-1.6l-2.4-12.6l-8.2,1.6C167.6,112.7,165.3,116.1,166,119.6z"/>
<path class="st1" d="M158.9,107.8L158.9,107.8c0.7,3.5,4,5.8,7.5,5.1l13.8-2.6l-2.4-12.6l-13.8,2.6
	C160.5,101,158.2,104.4,158.9,107.8z"/>
<path class="st1" d="M161.2,94.3L161.2,94.3c0.7,3.5,4,5.8,7.5,5.1l8.2-1.6l-2.4-12.6l-8.2,1.6C162.8,87.5,160.5,90.8,161.2,94.3z"
	/>
<path class="st0" d="M150.7,60.5L150.7,60.5c3.4,0.9,5.5,4.4,4.6,7.8l-2.1,8.1l-12.4-3.2l2.1-8.1C143.8,61.7,147.3,59.6,150.7,60.5z
	"/>
<polygon class="st0" points="147.1,141 0.2,141 0.2,89.7 144.1,89.7 "/>
<polygon class="st0" points="148.8,94 130.9,91.8 140.9,73.2 153.3,76.4 "/>
<circle class="st0" cx="140.9" cy="98.6" r="12.2"/>
<line class="st2" x1="169.1" y1="63.6" x2="181.2" y2="54"/>
<line class="st2" x1="157.4" y1="52.1" x2="166.3" y2="39"/>
<line class="st2" x1="143.3" y1="50.7" x2="139.6" y2="35.9"/>
<line class="st2" x1="132.4" y1="63.5" x2="120.3" y2="54.1"/>
<rect x="0.2" y="89.7" class="st3" width="104" height="51.3"/>
</svg>
