<?xml version="1.0" encoding="utf-8"?>
<!-- Generator: Adobe Illustrator 20.1.0, SVG Export Plug-In . SVG Version: 6.00 Build 0)  -->
<svg version="1.1" id="Layer_1" xmlns="http://www.w3.org/2000/svg" xmlns:xlink="http://www.w3.org/1999/xlink" x="0px" y="0px"
	 viewBox="0 0 400 400" style="enable-background:new 0 0 400 400;" xml:space="preserve">
<style type="text/css">
	.st0{fill:#FFFFFF;}
</style>
<path id="Twitter_1_" class="st0" d="M400,76c-14.7,6.5-30.5,10.9-47.1,12.8c16.8-10.1,29.9-26.3,36-45.4
	c-15.8,9.5-33.5,16.2-52.2,20c-14.9-16-36.2-25.9-60-25.9c-45.2,0-82.1,36.8-82.1,82.1c0,6.5,0.6,12.6,2.1,18.7
	c-68.2-3.4-128.6-36-169-85.6C20.6,64.9,16.6,79,16.6,93.9c0,28.4,14.5,53.7,36.4,68.2c-13.5-0.4-26.1-4.2-37.2-10.3
	c0,0.4,0,0.6,0,1.1c0,39.8,28.2,72.8,65.9,80.4c-6.9,1.9-14.1,2.9-21.7,2.9c-5.3,0-10.5-0.4-15.4-1.5c10.5,32.6,40.8,56.4,76.6,57
	c-28,22.1-63.3,35.1-101.8,35.1c-6.5,0-13.3-0.4-19.6-1.1c36.4,23.4,79.3,36.8,125.8,36.8c150.9,0,233.3-125,233.3-233.3
	c0-3.6,0-7.2-0.2-10.5C375.2,106.9,389.1,92.4,400,76z"/>
</svg>
