<?xml version="1.0" encoding="utf-8"?>
<!-- Generator: Adobe Illustrator 20.1.0, SVG Export Plug-In . SVG Version: 6.00 Build 0)  -->
<svg version="1.1" id="Layer_1" xmlns="http://www.w3.org/2000/svg" xmlns:xlink="http://www.w3.org/1999/xlink" x="0px" y="0px"
	 viewBox="0 0 400 400" style="enable-background:new 0 0 400 400;" xml:space="preserve">
<style type="text/css">
	.st0{fill:#FFFFFF;}
	.st1{fill:none;stroke:#000000;stroke-width:20;stroke-linecap:round;stroke-miterlimit:10;}
	.st2{fill-rule:evenodd;clip-rule:evenodd;}
</style>
<path id="Twitter_1_" d="M295,141.1c-7,3.1-14.5,5.2-22.4,6.1c8-4.8,14.2-12.5,17.1-21.6c-7.5,4.5-15.9,7.7-24.8,9.5
	c-7.1-7.6-17.2-12.3-28.5-12.3c-21.5,0-39,17.5-39,39c0,3.1,0.3,6,1,8.9c-32.4-1.6-61.1-17.1-80.3-40.7c-3.4,5.8-5.3,12.5-5.3,19.6
	c0,13.5,6.9,25.5,17.3,32.4c-6.4-0.2-12.4-2-17.7-4.9c0,0.2,0,0.3,0,0.5c0,18.9,13.4,34.6,31.3,38.2c-3.3,0.9-6.7,1.4-10.3,1.4
	c-2.5,0-5-0.2-7.3-0.7c5,15.5,19.4,26.8,36.4,27.1c-13.3,10.5-30.1,16.7-48.4,16.7c-3.1,0-6.3-0.2-9.3-0.5
	c17.3,11.1,37.7,17.5,59.8,17.5c71.7,0,110.9-59.4,110.9-110.9c0-1.7,0-3.4-0.1-5C283.2,155.8,289.8,148.9,295,141.1z"/>
</svg>
