<?xml version="1.0" encoding="utf-8"?>
<!-- Generator: Adobe Illustrator 20.1.0, SVG Export Plug-In . SVG Version: 6.00 Build 0)  -->
<svg version="1.1" id="Layer_1" xmlns="http://www.w3.org/2000/svg" xmlns:xlink="http://www.w3.org/1999/xlink" x="0px" y="0px"
	 viewBox="0 0 400 400" style="enable-background:new 0 0 400 400;" xml:space="preserve">
<style type="text/css">
	.st0{fill:#FFFFFF;}
</style>
<path id="LinkedIn_3_" class="st0" d="M397.7,242.6v146.2H313V252.5c0-34.2-12.2-57.6-43-57.6c-23.3,0-37.4,15.7-43.5,31
	c-2.1,5.6-2.9,13-2.9,20.7v142.5h-84.9c0,0,1.1-231.1,0-255h84.9v36.1c-0.3,0.3-0.3,0.5-0.5,0.8h0.5v-0.8
	C234.8,153,254.9,128,300,128C356,128,397.7,164.4,397.7,242.6z M50.4,11c-28.9,0-48,19.1-48,44c0,24.4,18.3,44,47,44h0.5
	c29.5,0,48-19.6,48-44C97.1,30.1,79.3,11,50.4,11z M7.4,388.8H92v-255H7.4V388.8z"/>
</svg>
