<?xml version="1.0" encoding="utf-8"?>
<!-- Generator: Adobe Illustrator 20.0.0, SVG Export Plug-In . SVG Version: 6.00 Build 0)  -->
<svg version="1.1" id="Layer_1" xmlns="http://www.w3.org/2000/svg" xmlns:xlink="http://www.w3.org/1999/xlink" x="0px" y="0px"
	 viewBox="0 0 91.6 31" style="enable-background:new 0 0 91.6 31;" xml:space="preserve">
<style type="text/css">
	.st0{fill:#FFFFFF;}
</style>
<g>
	<g>
		<path class="st0" d="M11.9,6.2c2,0,3.9,1.1,4.2,3.7l6.6-1.7c-0.6-5.5-5-7.5-11-7.5C6.7,0.7,1.6,2.8,1.6,9.3c0,4.9,2.8,7.4,9.4,9.5
			c3.8,1.2,4.8,2.1,4.8,3.9c0,2-1.6,2.8-3.8,2.8c-2.8,0-4.9-1.8-5.4-4.6l-6.1,2.7c1.5,5.2,5.3,7,11,7c6.1,0,11.3-2.3,11.3-8.5
			c0-5.5-3.1-7.6-9.2-9.5c-3.4-1-5-1.8-5-3.8C8.6,7,10,6.2,11.9,6.2z M35.5,25.7c-3,0-4.6-2.2-4.8-5.7h14c0.2-0.9,0.3-2,0.3-2.9
			c0-5.8-3.1-10-9.6-10c-6.8,0-11.1,4.4-11.1,12.2c0,7.3,4.5,11.5,11,11.5c4.5,0,8.6-1.6,9.7-6.2l-5.6-1.9
			C38.8,25,37.3,25.7,35.5,25.7z M35.2,11.8c4.4,0,4.1,4.5,4.1,4.5H31C31.2,13.7,32,11.8,35.2,11.8z M84.7,7.5l-3.3,10.3
			c-1.1,3.6-1.6,5.4-1.6,5.4h-0.2c0,0-0.4-1.8-1.5-5.5L75,7.5h-7l8,22.6h7.2l8.3-22.6H84.7z M58.2,25.7c-3,0-4.6-2.2-4.8-5.7h14
			c0.2-0.9,0.3-2,0.3-2.9c0-5.8-3.1-10-9.6-10c-6.8,0-11.1,4.4-11.1,12.2c0,7.3,4.5,11.5,11,11.5c4.5,0,8.6-1.6,9.7-6.2l-5.6-1.9
			C61.5,25,60,25.7,58.2,25.7z M57.9,11.8c4.4,0,4.1,4.5,4.1,4.5h-8.4C53.9,13.7,54.7,11.8,57.9,11.8z"/>
	</g>
</g>
</svg>
