<?xml version="1.0" encoding="utf-8"?>
<!-- Generator: Adobe Illustrator 20.0.0, SVG Export Plug-In . SVG Version: 6.00 Build 0)  -->
<svg version="1.1" id="Layer_1" xmlns="http://www.w3.org/2000/svg" xmlns:xlink="http://www.w3.org/1999/xlink" x="0px" y="0px"
	 viewBox="0 0 596.9 485.9" style="enable-background:new 0 0 596.9 485.9;" xml:space="preserve">
<style type="text/css">
	.st0{fill:#D9D9FF;}
	.st1{fill:#00E8AA;}
	.st2{fill:#000026;}
	.st3{fill:#9B9BFF;}
	.st4{fill:#4FEFC4;}
</style>
<path class="st0" d="M353.1,48.4l-106.4,0.2v142.1h90.8l-1.2-28.6c-0.3-6,3.8-11.4,9.7-12.5c0.3-0.1,0.6-0.1,1-0.1
	c6-0.7,10.6-5.5,10.9-11.5c1-26.2-2.9-42-2.9-42c8.3,2.2,11.7-2.5,7.5-5c-4.2-2.5-10.8-4.8-10.8-15.3S353.1,48.4,353.1,48.4z"/>
<path class="st1" d="M353.8,48.9c23.1-23-16.3-35.5-24.8-27c0-8.6-15-6.9-15,0.1C294,2.2,248,18.4,237.8,43.4
	c-12.7,31.1-3.4,62.4,8.9,87.9c26.9,0,34-46.9,34-64.4s11.3-18,15.5-18S353.8,48.9,353.8,48.9z"/>
<circle class="st2" cx="336.7" cy="84.9" r="2.2"/>
<rect x="239.3" y="190.7" class="st3" width="106.6" height="7.9"/>
<path class="st1" d="M596.8,485.6H0V340.7c0-127.4,103.2-142.2,230.6-142.2h135.6c127.4,0,230.6,14.9,230.6,142.2V485.6z"/>
<path class="st4" d="M407.6,197.9h-61.7v288h251c0,0,0-48.9,0-145.2C596.9,256.5,550,197.9,407.6,197.9z"/>
<path class="st0" d="M275.7,76.9h9.4v18.8h-9.4c-5.2,0-9.4-4.2-9.4-9.4v0C266.3,81.1,270.5,76.9,275.7,76.9z"/>
</svg>
